# xmcd
#
# Track frame offsets: 
#        150
#        15319
#        29644
#        43356
#        56688
#        67959
#        80703
#        91187
#        104790
#        114785
#        128432
#        147468
#        160889
#        173763
#        187204
#
# Disc length: 2642 seconds
#
# Revision: 0
# Processed by: cddbd v1.5.2PL0 Copyright (c) Steve Scherf et al.
# Submitted via: ExactAudioCopy v1.1
#
DISCID=cf0a500f
DTITLE=Various Artist - Various ‎– Simply Blues
DYEAR=2012
DGENRE=Blues
TTITLE0=Josh White - Trouble
TTITLE1=James Cotton With Muddy Waters - Rock Me Mama
TTITLE2=T Bone Burnett - Stormy Monday
TTITLE3=B.B. King - Woke Up This Morning
TTITLE4=B.B. King - She's Dynamite
TTITLE5=Bobby Parker - Blues Get Off My Shoulder
TTITLE6=Jimmy Reed - Ain't That Lovin' You Baby
TTITLE7=B.B. King - Three O'clock Blues
TTITLE8=Papa Lightfoot - Wine Women Whisky
TTITLE9=Slim Harpo - I'm A King Bee
TTITLE10=Lee Wiley - Touch Of The Blues
TTITLE11=Lil Green - Why Don't You Do Right?
TTITLE12=Billy Wright - Hey Little Girl
TTITLE13=Buddy Guy - This Is The End
TTITLE14=Screaming Jay Hawkins - I Put A Spell On You
EXTD=
EXTT0=
EXTT1=
EXTT2=
EXTT3=
EXTT4=
EXTT5=
EXTT6=
EXTT7=
EXTT8=
EXTT9=
EXTT10=
EXTT11=
EXTT12=
EXTT13=
EXTT14=
PLAYORDER=
